<svg xmlns="http://www.w3.org/2000/svg" fill="none" class="inter-logo icon icon--banco-color fill-undefined" style="width: 102px; height: 36px;" viewBox="0 0 109.00000762939453 41"><path fill="#FF7A00" d="M4.447 5.182c-.002.058-.002.127-.002.265v.514c0 .138 0 .207.002.265.065 1.73 1.535 3.118 3.367 3.18.062.002.135.002.282.002.146 0 .219 0 .28-.002 1.833-.062 3.304-1.45 3.368-3.18.003-.058.003-.127.003-.265v-.514c0-.138 0-.207-.003-.265-.064-1.73-1.535-3.119-3.367-3.18C8.315 2 8.242 2 8.096 2c-.147 0-.22 0-.282.002-1.832.061-3.302 1.45-3.367 3.18zM52.278 17.45v14.181c0 2.466.952 3.577 3.958 3.577 1.259 0 2.497-.35 3.238-.614v5.715c-1.26.423-3.186.635-4.762.635-6.318 0-9.313-3.165-9.313-8.636V3.693h6.879v9.101h7.196v4.657h-7.196z"></path><path fill="#FF7A00" fill-rule="evenodd" d="M61.802 26.07c0-8.4 5.297-14.122 13.774-14.122 9.057 0 13.546 6.608 13.072 16.19H68.869c.358 4.916 2.665 7.409 6.751 7.409 3.454 0 5.287-1.666 6.077-4.022h6.72c-1.306 5.776-5.88 9.419-12.84 9.419-8.594 0-13.775-5.668-13.775-14.176v-.699zm13.722-8.617c-3.77 0-6.023 2.018-6.655 6.03l12.87-.106c-.37-3.743-2.392-5.924-6.215-5.924z" clip-rule="evenodd"></path><path fill="#FF7A00" d="M31.589 11.948c-4.424 0-7.154 2.614-8.52 5.185l-.317-4.339h-6.56v27.303h6.878V24.752c0-4.529 2.402-7.301 6.032-7.301s4.974 2.402 4.974 6.56v16.086h6.878V22.53c.011-6.095-2.635-10.582-9.365-10.582zM99.37 17.133c1.746-3.418 5.312-5.185 7.99-5.185.476 0 1.227.063 1.64.158v5.345a20.768 20.768 0 00-2-.106c-4.889 0-7.63 2.942-7.63 7.937v14.815H92.49V12.794h6.667l.212 4.339zM0 12.794v4.651h4.654v22.652h6.881V12.794H0z"></path></svg>
