<?xml version="1.0" encoding="UTF-8" standalone="no"?>
<!-- Created with Inkscape (http://www.inkscape.org/) -->

<svg
   width="383mm"
   height="138mm"
   viewBox="0 0 383 138"
   version="1.1"
   id="svg25"
   >
  <defs
     id="defs19">
    <linearGradient
       id="interGradient"
       gradientUnits="userSpaceOnUse"
       x1="-252.4789"
       y1="404.01169"
       x2="-251.4491"
       y2="404.01169"
       gradientTransform="matrix(379.78711,0,0,-136.56364,95877.636,55400.768)"
       stroke="none"
       fill="#000000"
       stroke-width="1px">
      <stop
         offset="0"
         stop-color="#FF8700"
         stroke="none"
         fill="#000000"
         stroke-width="1px"
         id="stop2" />
      <stop
         offset="1"
         stop-color="#FF500F"
         stroke="none"
         fill="#000000"
         stroke-width="1px"
         id="stop4" />
    </linearGradient>
  </defs>
  <g
     id="layer1"
     transform="translate(0,-159)">
    <g
       id="g56"
       transform="matrix(1.0055425,0,0,1.0055425,-0.00403504,-0.88318368)">
      <path
         style="fill:#9c9b9b;stroke:none;stroke-width:3.79923916px"
         id="path7"
         d="m 123.82336,181.38394 c -3.41934,0 -6.45874,-2.65949 -6.45874,-6.07879 0,0 0,0 0,-0.37994 0,-3.41929 2.65949,-6.45869 6.45874,-6.45869 3.79924,0 6.45869,3.0394 6.45869,6.45869 0,3.79924 -2.65945,6.45873 -6.45869,6.45873 z m 0,-14.43711 c -4.93904,0 -8.35834,3.79924 -8.35834,7.97838 0,4.17918 3.4193,7.97842 8.35834,7.97842 4.93899,0 8.35833,-3.79924 8.35833,-7.97842 0,-4.17914 -3.41934,-7.97838 -8.35833,-7.97838 z m -22.79545,12.15756 1.13979,1.13975 c -1.51969,1.5197 -3.419337,2.65949 -6.458729,2.65949 -4.559089,0 -8.35833,-3.41933 -8.35833,-7.97842 0,-4.55909 3.419336,-7.97838 8.35833,-7.97838 3.039392,0 4.559089,1.13975 6.458729,2.27954 l -1.13979,1.13975 c -1.519703,-0.75984 -3.039394,-1.51969 -5.318939,-1.51969 -3.799241,0 -6.458691,2.65949 -6.458691,6.45872 0,3.79924 2.65945,6.45869 6.458691,6.45869 2.279545,-0.3799 3.799236,-1.13975 5.318939,-2.65945 z M 70.633981,167.32673 h 1.899639 v 15.5769 H 71.013924 L 60.376048,170.36612 v 12.53751 h -1.899601 v -15.5769 h 1.899601 l 10.257933,12.53751 z m -38.752221,9.87802 3.79924,-7.97838 3.799242,7.97838 c 0,0 -7.598482,0 -7.598482,0 z m 3.039393,-9.87802 -7.598483,15.5769 h 1.899639 l 1.899603,-4.17918 h 8.738235 l 1.899639,4.17918 h 1.899602 l -7.598482,-15.5769 c 0.379943,0 -1.139753,0 -1.139753,0 z M 7.9465603,181.38394 H 2.6276229 v -5.69889 h 5.3189374 c 2.6594497,0 4.1791457,1.1398 4.1791457,2.65949 0,1.8996 -1.519696,3.0394 -4.1791457,3.0394 z M 2.6276229,168.84643 h 4.9389946 c 2.2795445,0 3.7992415,1.13979 3.7992415,2.65949 0,1.8996 -1.519697,2.65945 -3.7992415,2.65945 H 2.6276229 Z m 7.5984821,6.07878 c 1.519696,-0.75984 2.65945,-1.51969 2.65945,-3.79924 0,-2.27954 -2.279545,-3.79924 -5.3189375,-3.79924 H 0.72802095 v 15.5769 H 7.9465603 c 3.4192987,0 6.0787857,-1.51969 6.0787857,-4.17918 0,-2.27955 -1.519697,-3.4193 -3.799241,-3.79924 z" />
      <path
         style="fill:url(#interGradient);stroke:none;stroke-width:3.79923916px"
         id="path9"
         d="m 176.63278,159.34834 v 39.13217 h 31.91359 v 23.9352 h -31.91359 v 36.47271 c 0,7.97838 3.79925,11.39772 11.39769,12.15753 8.73827,1.13979 15.57691,-2.65945 20.5159,-4.939 l 0.75985,-0.3799 9.87803,21.27572 -0.37991,0.37994 c -12.91742,6.45868 -20.89585,8.35828 -30.77387,8.35828 -23.93519,0 -36.85262,-13.29731 -36.85262,-37.23251 v -85.86281 z m 144.37109,41.79162 h -0.37995 v 91.56169 h 25.4549 v -71.4257 c 3.03939,-0.37994 6.07878,-0.75988 12.15757,-0.75988 6.07879,0 9.87803,0.75988 14.05718,1.89964 h 0.37994 l 7.59847,-23.5553 h -0.75985 c -7.59847,-1.8996 -13.67725,-2.65945 -23.55528,-2.65945 -9.49809,0 -24.31514,1.13976 -34.95298,4.939 z m -101.81962,45.59089 c 0,-31.53368 14.43711,-50.52989 43.69125,-50.52989 28.87419,0 44.4511,15.95681 44.4511,47.49049 l -42.93141,20.89581 -11.01777,-20.89581 27.3545,-14.0572 v 0 c 0.37994,-6.07875 -7.59849,-9.878 -17.47652,-9.49809 -11.39768,0.75985 -17.85641,6.07879 -17.85641,25.45489 0,18.99621 9.11818,25.4549 22.79545,25.4549 12.15757,0 23.93519,-1.8996 30.01398,-3.79924 h 0.37991 l 7.59848,22.79545 h -0.3799 c -10.25798,3.41933 -23.9352,4.93902 -37.61247,4.93902 -32.29353,0 -49.01019,-16.33675 -49.01019,-48.25033 z M 50.118117,201.13996 h -0.379943 v 91.56169 h 25.454895 v -71.4257 c 4.55909,-0.75988 7.978425,-0.75988 14.817059,-0.75988 12.537482,0 18.616262,5.31897 18.616262,15.9568 v 56.60868 h 25.4549 v -55.08898 c 0,-26.21474 -15.95678,-41.79161 -42.17156,-41.79161 -15.196964,0 -32.29353,1.8996 -41.791613,4.939 z M 0.72802095,292.70165 H 26.182917 V 198.48051 H 0.72802095 Z"
         />
    </g>
  </g>
</svg>
