<svg width="24" height="16" viewBox="0 0 24 16" fill="none" xmlns="http://www.w3.org/2000/svg">
<path d="M2.93878 0H0.489797C0.219281 0 0 0.21928 0 0.489795V2.93877C0 3.20929 0.219281 3.42857 0.489797 3.42857C0.760312 3.42857 0.979594 3.20929 0.979594 2.93877V0.979591H2.93878C3.2093 0.979591 3.42858 0.76031 3.42858 0.489795C3.42858 0.21928 3.2093 0 2.93878 0Z" fill="#FB6910"/>
<path d="M23.5103 0H21.0613C20.7908 0 20.5715 0.21928 20.5715 0.489795C20.5715 0.76031 20.7908 0.979591 21.0613 0.979591H23.0205V2.93877C23.0205 3.20929 23.2397 3.42857 23.5103 3.42857C23.7808 3.42857 24.0001 3.20929 24.0001 2.93877V0.489795C24.0001 0.21928 23.7808 0 23.5103 0Z" fill="#FB6910"/>
<path d="M23.5103 12.2449C23.2397 12.2449 23.0205 12.4642 23.0205 12.7347V14.6939H21.0613C20.7908 14.6939 20.5715 14.9132 20.5715 15.1837C20.5715 15.4542 20.7908 15.6735 21.0613 15.6735H23.5103C23.7808 15.6735 24.0001 15.4542 24.0001 15.1837V12.7347C24.0001 12.4642 23.7808 12.2449 23.5103 12.2449Z" fill="#FB6910"/>
<path d="M2.93878 14.6939H0.979594V12.7347C0.979594 12.4642 0.760312 12.2449 0.489797 12.2449C0.219281 12.2449 0 12.4642 0 12.7347V15.1837C0 15.4542 0.219281 15.6735 0.489797 15.6735H2.93878C3.2093 15.6735 3.42858 15.4542 3.42858 15.1837C3.42858 14.9132 3.2093 14.6939 2.93878 14.6939Z" fill="#FB6910"/>
<path d="M22.0408 13.2245V2.44898C22.0408 2.17846 21.8215 1.95918 21.551 1.95918C21.2805 1.95918 21.0612 2.17846 21.0612 2.44898V13.2245C21.0612 13.495 21.2805 13.7143 21.551 13.7143C21.8215 13.7143 22.0408 13.495 22.0408 13.2245Z" fill="#FB6910"/>
<path d="M19.1633 1.95918C18.8928 1.95918 18.6735 2.17846 18.6735 2.44898V10.9063C18.6735 11.1768 18.8928 11.3961 19.1633 11.3961C19.4338 11.3961 19.6531 11.1768 19.6531 10.9063V2.44898C19.6531 2.17846 19.4338 1.95918 19.1633 1.95918Z" fill="#FB6910"/>
<path d="M19.1633 12.6206C18.8928 12.6206 18.6735 12.8399 18.6735 13.1104V13.2245C18.6735 13.495 18.8928 13.7143 19.1633 13.7143C19.4338 13.7143 19.6531 13.495 19.6531 13.2245V13.1104C19.6531 12.8399 19.4338 12.6206 19.1633 12.6206Z" fill="#FB6910"/>
<path d="M16.7756 1.95918C16.505 1.95918 16.2858 2.17846 16.2858 2.44898V10.9063C16.2858 11.1768 16.505 11.3961 16.7756 11.3961C17.0461 11.3961 17.2654 11.1768 17.2654 10.9063V2.44898C17.2654 2.17846 17.0461 1.95918 16.7756 1.95918Z" fill="#FB6910"/>
<path d="M16.7756 12.6206C16.505 12.6206 16.2858 12.8399 16.2858 13.1104V13.2245C16.2858 13.495 16.505 13.7143 16.7756 13.7143C17.0461 13.7143 17.2654 13.495 17.2654 13.2245V13.1104C17.2654 12.8399 17.0461 12.6206 16.7756 12.6206Z" fill="#FB6910"/>
<path d="M14.3877 1.95918C14.1172 1.95918 13.8979 2.17846 13.8979 2.44898V10.9063C13.8979 11.1768 14.1172 11.3961 14.3877 11.3961C14.6583 11.3961 14.8775 11.1768 14.8775 10.9063V2.44898C14.8775 2.17846 14.6583 1.95918 14.3877 1.95918Z" fill="#FB6910"/>
<path d="M14.3877 12.6206C14.1172 12.6206 13.8979 12.8399 13.8979 13.1104V13.2245C13.8979 13.495 14.1172 13.7143 14.3877 13.7143C14.6583 13.7143 14.8775 13.495 14.8775 13.2245V13.1104C14.8775 12.8399 14.6583 12.6206 14.3877 12.6206Z" fill="#FB6910"/>
<path d="M12 1.95918C11.7295 1.95918 11.5102 2.17846 11.5102 2.44898V10.9063C11.5102 11.1768 11.7295 11.3961 12 11.3961C12.2705 11.3961 12.4898 11.1768 12.4898 10.9063V2.44898C12.4898 2.17846 12.2705 1.95918 12 1.95918Z" fill="#FB6910"/>
<path d="M12 12.6206C11.7295 12.6206 11.5102 12.8399 11.5102 13.1104V13.2245C11.5102 13.495 11.7295 13.7143 12 13.7143C12.2705 13.7143 12.4898 13.495 12.4898 13.2245V13.1104C12.4898 12.8399 12.2705 12.6206 12 12.6206Z" fill="#FB6910"/>
<path d="M9.61223 1.95918C9.34172 1.95918 9.12244 2.17846 9.12244 2.44898V10.9063C9.12244 11.1768 9.34172 11.3961 9.61223 11.3961C9.88275 11.3961 10.102 11.1768 10.102 10.9063V2.44898C10.102 2.17846 9.88275 1.95918 9.61223 1.95918Z" fill="#FB6910"/>
<path d="M9.61223 12.6206C9.34172 12.6206 9.12244 12.8399 9.12244 13.1104V13.2245C9.12244 13.495 9.34172 13.7143 9.61223 13.7143C9.88275 13.7143 10.102 13.495 10.102 13.2245V13.1104C10.102 12.8399 9.88275 12.6206 9.61223 12.6206Z" fill="#FB6910"/>
<path d="M7.22448 1.95918C6.95396 1.95918 6.73468 2.17846 6.73468 2.44898V10.9063C6.73468 11.1768 6.95396 11.3961 7.22448 11.3961C7.49499 11.3961 7.71427 11.1768 7.71427 10.9063V2.44898C7.71427 2.17846 7.49499 1.95918 7.22448 1.95918Z" fill="#FB6910"/>
<path d="M7.22448 12.6206C6.95396 12.6206 6.73468 12.8399 6.73468 13.1104V13.2245C6.73468 13.495 6.95396 13.7143 7.22448 13.7143C7.49499 13.7143 7.71427 13.495 7.71427 13.2245V13.1104C7.71427 12.8399 7.49499 12.6206 7.22448 12.6206Z" fill="#FB6910"/>
<path d="M4.83672 1.95918C4.5662 1.95918 4.34692 2.17846 4.34692 2.44898V10.9063C4.34692 11.1768 4.5662 11.3961 4.83672 11.3961C5.10724 11.3961 5.32652 11.1768 5.32652 10.9063V2.44898C5.32652 2.17846 5.10724 1.95918 4.83672 1.95918Z" fill="#FB6910"/>
<path d="M4.83672 12.6206C4.5662 12.6206 4.34692 12.8399 4.34692 13.1104V13.2245C4.34692 13.495 4.5662 13.7143 4.83672 13.7143C5.10724 13.7143 5.32652 13.495 5.32652 13.2245V13.1104C5.32652 12.8399 5.10724 12.6206 4.83672 12.6206Z" fill="#FB6910"/>
<path d="M2.9387 13.2245V2.44898C2.9387 2.17846 2.71942 1.95918 2.4489 1.95918C2.17839 1.95918 1.95911 2.17846 1.95911 2.44898V13.2245C1.95911 13.495 2.17839 13.7143 2.4489 13.7143C2.71942 13.7143 2.9387 13.495 2.9387 13.2245Z" fill="#FB6910"/>
</svg>
