<svg width="96" height="96" viewBox="0 0 210 176" fill="none" xmlns="http://www.w3.org/2000/svg">
<path d="M207.057 122.026C203.659 130.068 198.824 137.422 192.791 143.727C192.166 144.393 191.517 145.042 190.853 145.661C190.54 145.974 190.227 146.271 189.915 146.561C186.766 149.445 183.365 152.04 179.753 154.316L178.627 155.021C177.212 155.889 175.75 156.711 174.242 157.509C159.022 165.492 142.098 170.133 125.08 172.199C124.072 172.324 123.056 172.434 122.032 172.535C121.477 172.59 120.922 172.653 120.359 172.7L119.702 172.755L117.967 172.903C116.787 172.997 115.622 173.083 114.418 173.154C113.55 173.208 112.683 173.248 111.807 173.287C110.377 173.349 108.946 173.396 107.523 173.42C104.147 173.482 100.73 173.521 97.2988 173.506C75.9272 173.435 53.8285 171.299 36.0449 160.303C31.9018 157.744 26.7739 152.829 23.3266 149.581C13.1645 140.049 7.3643 129.578 3.15876 114.09C-3.814 88.3735 0.782388 54.2282 16.6978 32.4013C35.8494 6.19166 73.2381 -7.23793 104.35 3.98469C124.002 11.0751 125.948 30.9613 138.745 45.7682C139.315 46.4256 139.909 47.0908 140.503 47.7248C147.329 55.0792 155.666 60.8651 164.939 64.6839C172.217 67.7048 180.253 68.5031 187.374 71.9309C193.38 74.836 198.565 79.1967 202.461 84.617C210.278 95.3935 212.373 109.715 207.057 122.026Z" fill="#F1F1F1"/>
<path d="M110.095 172.864C81.9541 175.517 51.3819 171.495 27.0866 156.476C23.0014 153.966 19.1826 151.044 15.6895 147.758C17.206 132.575 23.0765 117.847 36.9439 109.927C39.2669 108.593 41.7052 107.472 44.2293 106.577C45.7145 106.037 47.2467 105.568 48.7866 105.176H48.8882C57.2441 103.101 65.97 103.017 74.3638 104.934L74.9188 105.059C76.2712 105.388 77.6157 105.748 78.9289 106.17C81.8866 107.235 84.7608 108.52 87.5276 110.013C102.661 118.668 107.602 131.558 110.002 143.36C110.345 145.003 109.024 147.273 109.22 148.955C109.259 149.566 109.759 166.016 110.095 172.864Z" fill="#194A69"/>
<path d="M47.7313 111.132C49.4511 116.861 57.0414 118.434 62.4195 118.63C66.328 118.771 72.8864 117.573 75.0439 113.981C75.9186 112.647 76.3748 111.082 76.3539 109.486C76.333 107.891 75.836 106.338 74.9267 105.028C66.3306 102.976 57.368 103.025 48.7944 105.168C47.6791 106.942 47.2978 109.081 47.7313 111.132Z" fill="#FFC6A6"/>
<path d="M90.0135 43.5301C88.5667 41.8744 86.899 40.426 85.0576 39.2257C72.949 31.3996 58.9566 37.6605 49.928 46.8483C46.0488 43.8285 41.3609 42.0307 36.4593 41.6831C34.0196 41.5258 31.5732 41.8604 29.2651 42.6669C26.9569 43.4735 24.8339 44.7357 23.0219 46.3788C19.3479 49.8848 17.55 54.9875 17.3155 60.0979C16.8699 70.8744 22.6701 85.5719 34.2315 88.4362C35.0757 88.6397 42.6269 89.8214 42.5253 88.7884C42.6757 90.7324 43.3453 92.6001 44.4639 94.1962C47.1451 97.7962 50.8191 97.3267 54.3446 95.4797C56.8617 94.1649 61.3799 91.2301 64.2175 91.9423C66.4297 92.498 67.3443 88.7023 69.6034 89.0858C81.6494 91.1362 93.7657 86.8319 96.6814 75.8284C99.4252 65.3962 97.4241 51.9666 90.0135 43.5301Z" fill="#FF5122"/>
<path d="M90.2558 83.6076C89.693 87.1293 88.5986 90.6041 86.3473 92.725C84.5573 94.2394 82.3038 95.0955 79.9609 95.1511C77.6372 95.2017 75.3155 94.9811 73.0428 94.4937L72.011 110.083L52.148 107.415C52.148 107.415 52.0933 91.4963 52.2809 84.7893C52.4294 79.4049 52.1871 74.0284 53.516 68.7849C55.3217 61.6397 59.1911 54.3458 66.7032 52.0684C70.2382 51.0644 73.9877 51.1058 77.4997 52.1876C81.0116 53.2693 84.136 55.3452 86.4959 58.1649C90.6467 63.2519 91.2564 70.1154 90.9359 76.4467C90.8412 78.8444 90.6142 81.235 90.2558 83.6076Z" fill="#FFC6A6"/>
<path d="M81.9853 50.871C81.9853 50.871 70.8148 73.8719 49.2477 76.2354C49.2477 76.2354 53.5393 39.6249 81.9853 50.871Z" fill="#FF5122"/>
<path d="M75.4779 71.076C75.541 69.9496 75.1099 69.0094 74.515 68.976C73.9202 68.9426 73.3868 69.8286 73.3238 70.955C73.2607 72.0814 73.6917 73.0216 74.2866 73.055C74.8814 73.0884 75.4148 72.2023 75.4779 71.076Z" fill="#914613"/>
<path d="M86.3007 71.1522C86.3638 70.0258 85.9328 69.0856 85.3379 69.0522C84.7431 69.0188 84.2097 69.9048 84.1466 71.0312C84.0835 72.1576 84.5146 73.0978 85.1094 73.1312C85.7043 73.1646 86.2376 72.2785 86.3007 71.1522Z" fill="#914613"/>
<path d="M73.6917 87.8495C72.3759 87.3067 71.2345 86.4123 70.3921 85.2639C69.5498 84.1155 69.039 82.7573 68.9155 81.3379L80.5628 84.398C80.5628 84.398 79.6795 88.9765 77.6706 88.8121C76.3075 88.6691 74.9695 88.3454 73.6917 87.8495Z" fill="white"/>
<path d="M81.4069 74.3023C81.9932 74.4902 82.0323 75.7033 82.1417 76.2041C82.3508 77.1138 82.6439 78.002 83.0172 78.8573C83.4315 79.8043 83.8849 81.307 82.3606 81.2522C81.7357 81.2088 81.14 80.9702 80.6576 80.5701C80.1752 80.1699 79.8304 79.6284 79.6716 79.0217C79.4759 78.2067 79.4994 77.3544 79.7397 76.5516C79.98 75.7487 80.4285 75.0239 81.0395 74.451C81.2037 74.3493 81.2975 74.271 81.4069 74.3023Z" fill="#DD8B62"/>
<path d="M146.64 26.297H116.63V65.0832H146.64V26.297Z" fill="#D8D8D8"/>
<path d="M142.981 31.024H120.289V60.364H142.981V31.024Z" fill="#F5F6FA"/>
<path d="M131.631 51.5992C134.891 51.5992 137.533 48.9537 137.533 45.6903C137.533 42.4269 134.891 39.7814 131.631 39.7814C128.372 39.7814 125.729 42.4269 125.729 45.6903C125.729 48.9537 128.372 51.5992 131.631 51.5992Z" fill="#D8D8D8"/>
<path d="M161.805 69.7632H136.485V102.492H161.805V69.7632Z" fill="#D8D8D8"/>
<path d="M158.717 73.7545H139.565V98.5084H158.717V73.7545Z" fill="#F5F6FA"/>
<path d="M151.564 81.9327H146.726L144.302 86.1277L146.726 90.3305H151.564L153.988 86.1277L151.564 81.9327Z" fill="#D8D8D8"/>
<path d="M111.784 173.451C110.351 173.519 108.92 173.566 107.492 173.592C104.115 173.655 100.699 173.694 97.2676 173.678C97.1895 154.606 94.5473 142.663 94.5473 142.663L108.696 139.001C111.573 147.414 111.862 164.874 111.784 173.451Z" fill="#FFC6A6"/>
<path d="M95.7824 116.743C95.7824 116.743 107.14 128.529 110.213 144.487C110.213 144.487 106.773 147.414 103.646 145.747C103.764 146.529 102.997 147.57 102.521 148.157C101.98 148.762 101.291 149.217 100.523 149.476C99.7543 149.735 98.9316 149.79 98.1353 149.636C97.1532 149.536 96.2469 149.062 95.6026 148.314C95.5568 148.791 95.4545 149.261 95.2977 149.715C95.1727 150.122 93.7343 146.255 93.7969 140.801C93.9454 131.034 95.7824 116.743 95.7824 116.743Z" fill="#194A69"/>
<path d="M82.4702 126.057L66.0316 124.527C65.232 124.453 64.5236 125.041 64.4493 125.842L61.3133 159.622C61.2389 160.423 61.8269 161.132 62.6264 161.207L79.0651 162.736C79.8646 162.811 80.573 162.222 80.6473 161.421L83.7834 127.641C83.8577 126.84 83.2697 126.131 82.4702 126.057Z" fill="#FF7A00"/>
<path d="M73.8167 149.096C72.5738 149.096 71.4247 149.378 70.174 149.386C69.8222 149.386 66.414 149.957 66.4062 148.603C66.4062 147.954 70.3147 147.547 70.9166 147.39C72.5582 146.944 74.9033 146.506 76.1696 145.269C76.6465 144.8 77.6314 144.041 77.2327 143.281C76.9122 142.679 75.8179 142.585 75.2629 142.624C75.2629 142.624 68.7669 142.796 66.328 143.117C66.0388 143.117 65.304 142.961 65.6011 142.522C66.0857 141.802 68.7748 141.661 69.5095 141.489C71.0729 141.121 73.3164 140.824 74.5359 139.736C76.1462 138.312 74.9658 137.24 73.293 137.091C67.6881 136.686 62.0663 137.6 56.8773 139.76C51.6461 141.933 46.6315 144.595 41.8999 147.711C39.8753 148.995 37.9914 150.145 36.0137 151.295L33.5592 145.567L15.1424 141.239L14.7437 143.148L14.5952 143.055C13.7727 147.282 13.2295 151.559 12.9692 155.858C12.662 159.928 13.2078 164.017 14.5717 167.863C15.1261 169.439 15.9632 170.901 17.0419 172.175C19.5042 174.962 23.1313 176.088 26.7662 175.995C30.7998 175.893 34.4738 173.991 37.8116 171.862C38.4683 171.44 39.1093 171.009 39.7581 170.571C42.8849 168.442 46.0117 166.243 48.9352 163.848C51.6164 161.673 54.1882 159.317 57.1509 157.525C60.3637 155.568 63.7719 155.31 67.3677 154.559C70.2913 153.941 74.5124 153.565 76.3885 150.888C77.4907 149.323 74.7157 149.073 73.8167 149.096Z" fill="#FFC6A6"/>
<path d="M28.5562 116.438C28.5562 116.438 17.7766 125.626 14.4231 143.915C14.4231 143.915 17.8548 146.835 20.9816 145.175C21.0063 145.817 21.1302 146.45 21.349 147.054C21.583 147.67 22.0183 148.188 22.584 148.525C23.6093 149.188 24.8365 149.466 26.047 149.308C27.1848 149.129 28.2317 148.578 29.0252 147.742C29.0699 148.221 29.175 148.691 29.3379 149.143C29.4678 149.673 29.7241 150.164 30.0849 150.573C30.4457 150.982 30.9002 151.297 31.4094 151.491C32.4123 151.846 33.4917 151.928 34.5362 151.726C35.0552 151.645 35.5604 151.493 36.0371 151.272" fill="#194A69"/>
<path d="M27.0632 157.306C27.0138 157.305 26.9665 157.285 26.9304 157.251C26.9114 157.233 26.8964 157.211 26.8861 157.187C26.8758 157.163 26.8705 157.137 26.8705 157.11C26.8705 157.084 26.8758 157.058 26.8861 157.034C26.8964 157.01 26.9114 156.988 26.9304 156.97C29.7523 153.839 35.701 151.311 35.9512 151.202C35.9752 151.191 36.0011 151.186 36.0272 151.186C36.0534 151.186 36.0792 151.192 36.1033 151.202C36.1273 151.212 36.1491 151.227 36.1672 151.246C36.1854 151.264 36.1997 151.287 36.2091 151.311C36.2206 151.335 36.2271 151.36 36.2282 151.386C36.2292 151.412 36.2248 151.438 36.2153 151.463C36.2057 151.487 36.1912 151.509 36.1726 151.527C36.1541 151.546 36.1319 151.56 36.1075 151.569C36.045 151.569 29.9868 154.136 27.2274 157.236C27.2076 157.26 27.1824 157.279 27.1538 157.291C27.1253 157.303 27.0942 157.308 27.0632 157.306Z" fill="#DD8B62"/>
<path d="M80.1875 130.627C80.8653 130.627 81.4147 130.077 81.4147 129.398C81.4147 128.719 80.8653 128.169 80.1875 128.169C79.5097 128.169 78.9602 128.719 78.9602 129.398C78.9602 130.077 79.5097 130.627 80.1875 130.627Z" fill="#602A0C"/>
<path d="M190.853 145.661C190.54 145.974 190.227 146.271 189.915 146.561C186.766 149.445 183.365 152.04 179.753 154.316L178.627 155.021C177.212 155.889 175.75 156.711 174.242 157.509C159.022 165.492 142.098 170.133 125.081 172.199C124.072 172.324 123.056 172.434 122.032 172.535C121.477 172.59 120.922 172.653 120.359 172.7L119.702 172.755L117.967 172.903C116.787 172.997 115.622 173.083 114.418 173.154C107.383 169.757 103.138 166.486 103.138 161.837C103.185 150.795 126.949 140.871 156.27 140.871C169.481 140.871 181.566 142.655 190.853 145.661Z" fill="#6A6E81"/>
<path d="M104.334 158.245H103.169V162.432H104.334V158.245Z" fill="#FFAD76"/>
<path d="M192.791 143.728C191.869 144.698 190.91 145.642 189.915 146.561C186.766 149.445 183.365 152.04 179.753 154.316L178.627 155.021C177.212 155.889 175.75 156.711 174.242 157.509C159.022 165.492 142.098 170.133 125.081 172.199C124.072 172.324 123.056 172.434 122.032 172.536C121.477 172.59 120.922 172.653 120.359 172.7L119.702 172.755C109.54 169.108 103.138 163.958 103.138 158.245C103.138 147.202 126.918 138.249 156.239 138.249C170.411 138.249 183.278 140.331 192.791 143.728Z" fill="#8C91A9"/>
<path d="M141.488 143.791C141.485 144.195 141.581 144.593 141.766 144.952C141.951 145.311 142.221 145.619 142.552 145.85C142.883 146.082 143.265 146.229 143.665 146.279C144.066 146.329 144.472 146.281 144.85 146.139C146.467 145.587 147.871 144.542 148.865 143.151C149.859 141.76 150.393 140.093 150.393 138.383C150.393 136.672 149.859 135.005 148.865 133.614C147.871 132.223 146.467 131.179 144.85 130.627C144.473 130.486 144.067 130.439 143.668 130.49C143.268 130.541 142.887 130.688 142.557 130.919C142.228 131.15 141.959 131.458 141.774 131.816C141.589 132.174 141.494 132.572 141.496 132.975L141.488 143.791Z" fill="#FD4F00"/>
<path d="M147.781 133.335C147.781 129.038 153.487 125.508 157.779 125.508H167.996C171.31 125.519 174.485 126.841 176.828 129.187C179.172 131.533 180.493 134.712 180.503 138.03C180.503 141.351 179.185 144.536 176.84 146.884C174.494 149.233 171.313 150.552 167.996 150.552H157.881C153.542 150.552 147.765 147.022 147.758 142.671L147.781 133.335Z" fill="#FF7B1D"/>
<path d="M153.339 126.949C153.605 130.212 155.309 132.732 157.138 132.584C158.967 132.435 160.265 129.664 159.975 126.409C159.757 123.693 157.271 121.595 156.442 120.93C156.369 120.874 156.277 120.847 156.185 120.854C156.092 120.861 156.006 120.902 155.942 120.969C155.231 121.76 153.112 124.233 153.339 126.949Z" fill="#FF7B1D"/>
<path d="M170.74 153.878L170.967 153.878C172.905 153.874 174.474 152.298 174.47 150.357L174.454 142.038C174.45 140.097 172.876 138.527 170.937 138.53L170.711 138.531C168.772 138.534 167.204 140.111 167.208 142.051L167.224 150.371C167.227 152.312 168.802 153.882 170.74 153.878Z" fill="#FF7B1D"/>
<path d="M156.599 153.906L156.826 153.905C158.764 153.902 160.332 152.325 160.329 150.385L160.313 142.065C160.309 140.124 158.735 138.554 156.796 138.558L156.57 138.558C154.631 138.562 153.063 140.138 153.066 142.079L153.082 150.398C153.086 152.339 154.661 153.91 156.599 153.906Z" fill="#FF7B1D"/>
<path d="M152.839 134.829C153.668 134.829 154.339 134.157 154.339 133.327C154.339 132.497 153.668 131.824 152.839 131.824C152.01 131.824 151.338 132.497 151.338 133.327C151.338 134.157 152.01 134.829 152.839 134.829Z" fill="#C15C17"/>
<path d="M161.093 128.874H170.325C170.491 128.86 170.645 128.782 170.754 128.656C170.864 128.531 170.92 128.367 170.911 128.201C170.92 128.034 170.862 127.87 170.751 127.746C170.64 127.621 170.484 127.546 170.317 127.536H161.093C160.927 127.546 160.771 127.621 160.66 127.746C160.548 127.87 160.491 128.034 160.499 128.201C160.491 128.368 160.548 128.533 160.659 128.659C160.77 128.785 160.926 128.862 161.093 128.874Z" fill="#C15C17"/>
<path d="M127.34 140.957C130.979 140.957 133.929 139.749 133.929 138.257C133.929 136.766 130.979 135.557 127.34 135.557C123.7 135.557 120.75 136.766 120.75 138.257C120.75 139.749 123.7 140.957 127.34 140.957Z" fill="#FFC715"/>
<path d="M127.34 160.335C130.979 160.335 133.929 159.126 133.929 157.635C133.929 156.144 130.979 154.935 127.34 154.935C123.7 154.935 120.75 156.144 120.75 157.635C120.75 159.126 123.7 160.335 127.34 160.335Z" fill="#FFC715"/>
<path d="M133.929 138.257H120.75V157.917H133.929V138.257Z" fill="#FFC715"/>
<path d="M120.82 138.656C121.297 139.956 124.033 140.949 127.34 140.949C130.646 140.949 133.554 139.893 133.89 138.531" fill="#FFC715"/>
<path d="M127.34 141.2C123.955 141.2 121.086 140.167 120.586 138.742C120.572 138.683 120.581 138.62 120.611 138.566C120.641 138.512 120.689 138.472 120.747 138.451C120.805 138.431 120.868 138.433 120.925 138.456C120.982 138.479 121.028 138.523 121.055 138.578C121.5 139.791 124.181 140.707 127.308 140.707C130.912 140.707 133.343 139.572 133.617 138.469C133.635 138.405 133.677 138.351 133.733 138.318C133.79 138.284 133.857 138.274 133.921 138.289C133.953 138.296 133.983 138.309 134.009 138.328C134.035 138.347 134.057 138.372 134.074 138.399C134.091 138.427 134.102 138.458 134.106 138.49C134.111 138.522 134.109 138.555 134.101 138.586C133.757 140.089 130.896 141.2 127.34 141.2Z" fill="#E5A31F"/>
<path d="M127.34 143.626C123.955 143.626 121.086 142.593 120.586 141.168C120.567 141.107 120.572 141.041 120.601 140.984C120.629 140.926 120.679 140.882 120.739 140.86C120.799 140.838 120.865 140.84 120.924 140.865C120.983 140.89 121.029 140.937 121.055 140.996C121.5 142.209 124.182 143.125 127.308 143.125C130.912 143.125 133.343 141.99 133.617 140.895C133.625 140.863 133.639 140.833 133.659 140.806C133.679 140.78 133.703 140.758 133.732 140.741C133.76 140.725 133.791 140.714 133.824 140.709C133.857 140.704 133.89 140.706 133.921 140.715C133.953 140.722 133.983 140.735 134.009 140.754C134.035 140.773 134.057 140.798 134.074 140.825C134.091 140.853 134.102 140.884 134.107 140.916C134.111 140.948 134.109 140.981 134.101 141.012C133.757 142.522 130.896 143.626 127.34 143.626Z" fill="#E5A31F"/>
<path d="M127.34 146.044C123.955 146.044 121.086 145.011 120.586 143.595C120.563 143.532 120.566 143.464 120.594 143.403C120.622 143.343 120.672 143.297 120.734 143.274C120.796 143.251 120.865 143.254 120.925 143.282C120.985 143.31 121.032 143.36 121.055 143.422C121.5 144.635 124.182 145.551 127.308 145.551C130.912 145.551 133.343 144.416 133.617 143.313C133.633 143.248 133.675 143.193 133.732 143.16C133.789 143.126 133.857 143.116 133.922 143.133C133.986 143.149 134.041 143.191 134.075 143.248C134.108 143.305 134.118 143.374 134.101 143.438C133.757 144.949 130.896 146.044 127.34 146.044Z" fill="#E5A31F"/>
<path d="M127.34 148.47C123.947 148.47 121.086 147.437 120.586 146.013C120.565 145.95 120.569 145.883 120.597 145.823C120.624 145.763 120.673 145.716 120.734 145.692C120.797 145.673 120.864 145.678 120.923 145.705C120.982 145.733 121.029 145.781 121.055 145.841C121.5 147.062 124.182 147.969 127.308 147.969C130.912 147.969 133.343 146.835 133.617 145.739C133.625 145.707 133.639 145.677 133.659 145.651C133.679 145.624 133.704 145.602 133.732 145.586C133.76 145.569 133.791 145.558 133.824 145.553C133.857 145.549 133.89 145.551 133.922 145.559C133.953 145.566 133.983 145.58 134.009 145.599C134.035 145.618 134.057 145.642 134.074 145.67C134.091 145.697 134.102 145.728 134.107 145.76C134.111 145.792 134.109 145.825 134.101 145.856C133.757 147.375 130.896 148.47 127.34 148.47Z" fill="#E5A31F"/>
<path d="M127.34 150.896C123.955 150.896 121.086 149.863 120.586 148.439C120.563 148.377 120.566 148.308 120.594 148.248C120.622 148.188 120.672 148.141 120.734 148.118C120.796 148.095 120.865 148.098 120.925 148.126C120.985 148.154 121.032 148.205 121.055 148.267C121.5 149.48 124.182 150.395 127.308 150.395C130.912 150.395 133.343 149.261 133.617 148.165C133.633 148.1 133.674 148.045 133.731 148.009C133.788 147.974 133.856 147.963 133.922 147.977C133.985 147.995 134.039 148.037 134.072 148.094C134.105 148.151 134.116 148.218 134.101 148.282C133.757 149.793 130.896 150.896 127.34 150.896Z" fill="#E5A31F"/>
<path d="M127.339 153.315C123.955 153.315 121.086 152.282 120.586 150.857C120.572 150.797 120.581 150.735 120.611 150.681C120.641 150.627 120.689 150.586 120.747 150.566C120.805 150.546 120.868 150.547 120.925 150.571C120.982 150.594 121.028 150.638 121.055 150.693C121.5 151.906 124.181 152.822 127.308 152.822C130.912 152.822 133.343 151.687 133.617 150.583C133.635 150.52 133.677 150.466 133.733 150.433C133.79 150.399 133.857 150.389 133.921 150.403C133.953 150.411 133.983 150.426 134.009 150.446C134.036 150.465 134.058 150.49 134.074 150.519C134.091 150.547 134.102 150.578 134.107 150.611C134.111 150.643 134.109 150.677 134.101 150.708C133.757 152.219 130.896 153.315 127.339 153.315Z" fill="#E5A31F"/>
<path d="M127.34 155.741C123.955 155.741 121.086 154.708 120.586 153.283C120.565 153.221 120.569 153.153 120.597 153.093C120.624 153.034 120.673 152.987 120.734 152.962C120.797 152.944 120.864 152.948 120.923 152.976C120.982 153.003 121.029 153.051 121.055 153.111C121.5 154.324 124.182 155.24 127.308 155.24C130.912 155.24 133.343 154.105 133.617 153.009C133.625 152.977 133.639 152.948 133.659 152.921C133.679 152.895 133.704 152.873 133.732 152.856C133.76 152.839 133.791 152.828 133.824 152.824C133.857 152.819 133.89 152.821 133.922 152.829C133.953 152.837 133.983 152.85 134.009 152.869C134.035 152.888 134.057 152.912 134.074 152.94C134.091 152.968 134.102 152.999 134.107 153.031C134.111 153.063 134.109 153.095 134.101 153.127C133.757 154.637 130.896 155.741 127.34 155.741Z" fill="#E5A31F"/>
<path d="M127.34 158.159C123.955 158.159 121.086 157.134 120.586 155.709C120.563 155.647 120.566 155.578 120.594 155.518C120.622 155.458 120.672 155.412 120.734 155.389C120.796 155.366 120.865 155.369 120.925 155.397C120.985 155.424 121.032 155.475 121.055 155.537C121.5 156.75 124.182 157.666 127.308 157.666C130.912 157.666 133.343 156.531 133.617 155.436C133.633 155.371 133.674 155.315 133.731 155.28C133.788 155.245 133.856 155.233 133.922 155.248C133.985 155.266 134.039 155.308 134.072 155.365C134.105 155.421 134.116 155.489 134.101 155.553C133.757 157.063 130.896 158.159 127.34 158.159Z" fill="#E5A31F"/>
<path d="M133.515 152.955C137.154 152.955 140.105 151.746 140.105 150.255C140.105 148.763 137.154 147.555 133.515 147.555C129.876 147.555 126.925 148.763 126.925 150.255C126.925 151.746 129.876 152.955 133.515 152.955Z" fill="#FFC715"/>
<path d="M133.515 165.132C137.154 165.132 140.105 163.923 140.105 162.432C140.105 160.941 137.154 159.732 133.515 159.732C129.876 159.732 126.925 160.941 126.925 162.432C126.925 163.923 129.876 165.132 133.515 165.132Z" fill="#FFC715"/>
<path d="M140.105 150.255H126.925V162.644H140.105V150.255Z" fill="#FFC715"/>
<path d="M126.996 150.662C127.473 151.961 130.209 152.955 133.515 152.955C136.822 152.955 139.73 151.89 140.066 150.529" fill="#FFC715"/>
<path d="M133.515 153.205C130.13 153.205 127.261 152.172 126.761 150.748C126.738 150.685 126.741 150.617 126.769 150.556C126.797 150.496 126.848 150.45 126.91 150.427C126.94 150.414 126.973 150.408 127.006 150.409C127.04 150.41 127.072 150.418 127.102 150.432C127.132 150.446 127.159 150.466 127.181 150.49C127.203 150.515 127.22 150.544 127.23 150.575C127.676 151.789 130.357 152.704 133.484 152.704C137.087 152.704 139.526 151.569 139.792 150.474C139.809 150.409 139.85 150.353 139.907 150.318C139.964 150.283 140.032 150.272 140.097 150.286C140.16 150.304 140.214 150.346 140.247 150.403C140.281 150.459 140.291 150.527 140.277 150.591C139.925 152.102 137.072 153.205 133.515 153.205Z" fill="#E5A31F"/>
<path d="M133.515 155.623C130.13 155.623 127.261 154.59 126.761 153.166C126.748 153.106 126.757 153.043 126.786 152.99C126.816 152.936 126.865 152.895 126.923 152.875C126.98 152.854 127.044 152.856 127.1 152.88C127.157 152.903 127.203 152.946 127.23 153.002C127.676 154.215 130.357 155.13 133.484 155.13C137.087 155.13 139.526 153.995 139.792 152.892C139.81 152.829 139.852 152.775 139.909 152.741C139.965 152.708 140.033 152.697 140.097 152.712C140.129 152.72 140.159 152.735 140.185 152.754C140.211 152.774 140.233 152.799 140.25 152.827C140.267 152.856 140.278 152.887 140.282 152.92C140.287 152.952 140.285 152.985 140.277 153.017C139.925 154.528 137.072 155.623 133.515 155.623Z" fill="#E5A31F"/>
<path d="M133.515 158.089C130.13 158.089 127.262 157.055 126.761 155.631C126.741 155.569 126.744 155.501 126.772 155.441C126.8 155.382 126.849 155.335 126.91 155.31C126.972 155.287 127.041 155.29 127.101 155.318C127.161 155.346 127.207 155.397 127.23 155.459C127.676 156.672 130.357 157.588 133.484 157.588C137.087 157.588 139.526 156.453 139.792 155.357C139.8 155.325 139.815 155.295 139.834 155.269C139.854 155.243 139.879 155.221 139.907 155.204C139.936 155.187 139.967 155.176 140 155.172C140.032 155.167 140.065 155.169 140.097 155.177C140.129 155.184 140.158 155.198 140.184 155.217C140.211 155.236 140.233 155.26 140.25 155.288C140.266 155.316 140.277 155.346 140.282 155.378C140.287 155.411 140.285 155.443 140.277 155.475C139.925 156.946 137.072 158.089 133.515 158.089Z" fill="#E5A31F"/>
<path d="M133.515 160.437C130.13 160.437 127.261 159.411 126.761 157.987C126.738 157.925 126.741 157.856 126.769 157.796C126.797 157.736 126.848 157.689 126.91 157.666C126.94 157.654 126.973 157.648 127.006 157.648C127.04 157.649 127.072 157.657 127.102 157.671C127.132 157.685 127.159 157.705 127.181 157.729C127.203 157.754 127.22 157.783 127.23 157.815C127.676 159.028 130.357 159.943 133.484 159.943C137.087 159.943 139.526 158.809 139.792 157.705C139.81 157.642 139.852 157.588 139.909 157.554C139.966 157.521 140.033 157.511 140.097 157.525C140.129 157.533 140.159 157.548 140.185 157.567C140.211 157.587 140.233 157.612 140.25 157.64C140.267 157.669 140.278 157.7 140.282 157.733C140.287 157.765 140.285 157.798 140.277 157.83C139.925 159.372 137.072 160.437 133.515 160.437Z" fill="#E5A31F"/>
<path d="M133.515 162.894C130.13 162.894 127.261 161.861 126.761 160.436C126.742 160.375 126.748 160.309 126.776 160.252C126.805 160.194 126.854 160.15 126.914 160.128C126.974 160.106 127.041 160.108 127.099 160.133C127.158 160.158 127.205 160.205 127.23 160.264C127.676 161.485 130.357 162.401 133.484 162.401C137.087 162.401 139.526 161.258 139.792 160.162C139.81 160.099 139.852 160.045 139.909 160.012C139.966 159.978 140.033 159.968 140.097 159.982C140.128 159.99 140.158 160.003 140.184 160.022C140.211 160.041 140.233 160.065 140.25 160.093C140.266 160.121 140.277 160.152 140.282 160.184C140.287 160.216 140.285 160.249 140.277 160.28C139.925 161.798 137.072 162.894 133.515 162.894Z" fill="#E5A31F"/>
</svg>
